<svg xmlns="http://www.w3.org/2000/svg" class="injected-svg" id="svg-b8ab8289-263e-4e79-866b-5b15e9f2fe1e" viewBox="72.2 200.22 331.04 105.46"><g xmlns="http://www.w3.org/2000/svg" fill="#77bcbd" id="icon-svg"> <path transform="translate(52.999999999999986, 193) scale(0.6,0.6)" d="M 140.595 14.209 C 134.070 18.038, 130.688 23.115, 130.234 29.765 C 129.689 37.742, 132.736 43.406, 139.775 47.500 L 144.933 50.500 144.929 100 L 144.925 149.500 139.256 152.788 L 133.586 156.075 99.902 122.403 L 66.219 88.730 68.087 84.615 C 72.751 74.345, 68.227 62.918, 57.768 58.548 C 52.900 56.513, 48.409 56.623, 43.500 58.896 C 35.877 62.425, 32 68.416, 32 76.664 C 32 88.848, 43.693 97.869, 55.601 94.870 L 60.201 93.712 94.993 128.493 L 129.784 163.274 130.187 169.600 C 130.517 174.780, 131.136 176.611, 133.603 179.713 C 142.372 190.735, 157.946 190.462, 165.113 179.160 C 171.588 168.951, 167.311 155.685, 156.041 151.017 L 153 149.757 153 100 L 153 50.243 156.041 48.983 C 166.669 44.581, 170.997 32.822, 165.879 22.250 C 161.493 13.189, 149.067 9.238, 140.595 14.209 M 143.420 21.829 C 134.103 27.681, 138.189 42, 149.177 42 C 152.419 42, 153.860 41.340, 156.600 38.600 C 159.357 35.843, 160 34.427, 160 31.116 C 160 22.635, 150.558 17.346, 143.420 21.829 M 46.378 66.437 C 42.326 68.201, 40 71.611, 40 75.788 C 40 82.629, 44.184 86.944, 50.850 86.978 C 54.479 86.996, 55.763 86.437, 58.600 83.600 C 61.027 81.173, 62 79.299, 62 77.050 C 62 72.386, 59.324 68.033, 55.466 66.421 C 51.337 64.696, 50.374 64.698, 46.378 66.437" stroke="none" fill-rule="evenodd"></path></g><path xmlns="http://www.w3.org/2000/svg" id="SvgjsPath94499124" d="M15.73 1.07Q8.88 1.07 5.30-1.02Q1.71-3.10 1.71-6.10L1.71-6.10Q1.71-8.03 2.41-10.33Q3.10-12.63 4.39-14.66L4.39-14.66Q6.10-13.05 8.83-12.09Q11.56-11.13 14.34-11.13L14.34-11.13Q18.62-11.13 20.44-13.27Q22.26-15.41 22.26-19.47L22.26-19.47Q22.26-22.26 21.24-24.72Q20.22-27.18 17.44-30.92L17.44-30.92L7.70-43.87Q4.17-48.47 2.89-52.11Q1.60-55.75 1.60-59.60L1.60-59.60Q1.60-67.09 6.53-71.53Q11.45-75.97 20.65-75.97L20.65-75.97Q28.46-75.97 31.83-74.47Q35.20-72.97 35.20-69.98L35.20-69.98Q35.20-66.45 32.42-63.34L32.42-63.34Q31.46-64.09 28.68-64.79Q25.89-65.48 23.11-65.48L23.11-65.48Q19.05-65.48 16.80-64.09Q14.55-62.70 14.55-59.92L14.55-59.92Q14.55-57.46 15.41-55.43Q16.26-53.39 18.51-50.40L18.51-50.40L28.78-37.24Q32.53-32.42 33.87-28.52Q35.20-24.61 35.20-19.79L35.20-19.79Q35.20-10.49 30.82-4.71Q26.43 1.07 15.73 1.07L15.73 1.07ZM55.85 1.07Q49.54 1.07 46.01-1.02Q42.48-3.10 40.71-9.10Q38.95-15.09 38.95-26.86L38.95-26.86Q38.95-54.57 56.71-54.57L56.71-54.57Q62.70-54.57 66.29-52.16Q69.87-49.76 71.64-43.87Q73.40-37.98 73.40-27.29L73.40-27.29Q73.40-12.20 69.07-5.56Q64.73 1.07 55.85 1.07L55.85 1.07ZM56.17-8.77Q57.46-8.77 58.31-10.00Q59.17-11.23 59.76-15.25Q60.35-19.26 60.35-26.96L60.35-26.96Q60.35-34.77 60.03-38.47Q59.71-42.16 58.85-43.44Q57.99-44.73 56.28-44.73L56.28-44.73Q54.25-44.73 53.13-41.09Q52.00-37.45 52.00-26.96L52.00-26.96Q52.00-18.94 52.48-15.03Q52.97-11.13 53.82-9.95Q54.68-8.77 56.17-8.77L56.17-8.77ZM93.52 1.07Q87.74 1.07 84.37-1.07Q81.00-3.21 79.34-8.93Q77.68-14.66 77.68-25.57L77.68-25.57Q77.68-37.56 80.41-43.98Q83.14-50.40 87.26-52.48Q91.38-54.57 96.73-54.57L96.73-54.57Q100.69-54.57 103.15-53.13Q105.61-51.68 105.61-49.11L105.61-49.11Q105.61-45.90 104.54-42.80L104.54-42.80Q103.15-43.34 101.28-43.76Q99.40-44.19 97.80-44.19L97.80-44.19Q94.27-44.19 92.18-40.55Q90.09-36.91 90.09-25.79L90.09-25.79Q90.09-19.37 90.74-15.89Q91.38-12.41 92.93-10.91Q94.48-9.42 97.37-9.42L97.37-9.42Q99.08-9.42 101.01-9.84Q102.93-10.27 104.22-10.91L104.22-10.91Q105.18-7.06 105.18-4.71L105.18-4.71Q105.18-2.03 101.92-0.48Q98.65 1.07 93.52 1.07L93.52 1.07ZM137.60 1.07Q130.75 1.07 127.17-1.02Q123.59-3.10 123.59-6.10L123.59-6.10Q123.59-8.03 124.28-10.33Q124.98-12.63 126.26-14.66L126.26-14.66Q127.97-13.05 130.70-12.09Q133.43-11.13 136.21-11.13L136.21-11.13Q140.49-11.13 142.31-13.27Q144.13-15.41 144.13-19.47L144.13-19.47Q144.13-22.26 143.11-24.72Q142.10-27.18 139.31-30.92L139.31-30.92L129.58-43.87Q126.05-48.47 124.76-52.11Q123.48-55.75 123.48-59.60L123.48-59.60Q123.48-67.09 128.40-71.53Q133.32-75.97 142.52-75.97L142.52-75.97Q150.34-75.97 153.71-74.47Q157.08-72.97 157.08-69.98L157.08-69.98Q157.08-66.45 154.29-63.34L154.29-63.34Q153.33-64.09 150.55-64.79Q147.77-65.48 144.99-65.48L144.99-65.48Q140.92-65.48 138.67-64.09Q136.43-62.70 136.43-59.92L136.43-59.92Q136.43-57.46 137.28-55.43Q138.14-53.39 140.38-50.40L140.38-50.40L150.66-37.24Q154.40-32.42 155.74-28.52Q157.08-24.61 157.08-19.79L157.08-19.79Q157.08-10.49 152.69-4.71Q148.30 1.07 137.60 1.07L137.60 1.07ZM180.30-10.49Q185.43-10.49 191.64-13.48L191.64-13.48Q192.60-10.27 192.60-5.56L192.60-5.56Q192.60-2.46 188.27-0.70Q183.93 1.07 177.41 1.07L177.41 1.07Q169.38 1.07 165.10-4.44Q160.82-9.95 160.82-24.18L160.82-24.18Q160.82-36.38 163.34-43.12Q165.85-49.86 169.92-52.22Q173.98-54.57 179.65-54.57L179.65-54.57Q193.35-54.57 193.35-37.13L193.35-37.13Q193.35-27.82 191.85-21.93L191.85-21.93Q185.75-20.65 173.23-20.44L173.23-20.44Q173.55-14.98 175.05-12.73Q176.55-10.49 180.30-10.49L180.30-10.49ZM178.16-44.30Q175.69-44.30 174.57-40.77Q173.45-37.24 173.23-29.75L173.23-29.75Q179.23-29.75 181.26-30.71L181.26-30.71Q181.79-32.31 181.79-36.27L181.79-36.27Q181.79-41.20 181.04-42.75Q180.30-44.30 178.16-44.30L178.16-44.30ZM214.11 1.07Q209.51 1.07 207.15-0.64Q204.80-2.35 203.94-5.56Q203.09-8.77 203.09-14.02L203.09-14.02L203.09-43.44L196.56-43.44Q196.56-48.36 196.67-50.29Q196.77-52.22 197.25-52.86Q197.74-53.50 199.02-53.50L199.02-53.50L203.09-53.50L203.09-69.02Q203.09-70.94 204.05-71.69Q205.01-72.44 207.21-72.60Q209.40-72.76 214.96-72.76L214.96-72.76L214.96-53.50L223.74-53.50Q223.74-48.47 223.63-46.60Q223.52-44.73 223.04-44.08Q222.56-43.44 221.38-43.44L221.38-43.44L214.96-43.44L214.96-14.23Q214.96-11.66 215.39-10.33Q215.82-8.99 217.53-8.99L217.53-8.99Q220.21-8.99 223.09-10.38L223.09-10.38Q223.84-6.85 223.84-4.71L223.84-4.71Q223.84 1.07 214.11 1.07L214.11 1.07Z" fill="#3b525c" fontsize="107" transform="matrix(1,0,0,1,179.4,290.45)"></path></svg>